<svg width="56" height="57" viewBox="0 0 56 57" fill="none" xmlns="http://www.w3.org/2000/svg">
<rect x="2.5" y="2.5" width="50.1297" height="51.225" fill="#F2F2F2"/>
<path d="M38.925 21.325L37.825 20.225C37.525 19.925 36.925 19.925 36.625 20.225L24.725 32.125L18.525 25.925C18.225 25.625 17.625 25.625 17.325 25.925L16.225 27.025C15.925 27.325 15.925 27.925 16.225 28.225L24.025 36.025C24.225 36.225 24.425 36.225 24.625 36.225C24.825 36.225 25.025 36.125 25.225 36.025L38.725 22.525C39.225 22.225 39.225 21.725 38.925 21.325Z" fill="black"/>
<rect x="2.5" y="2.5" width="50.1297" height="51.225" stroke="#F2F2F2" stroke-width="5" stroke-linejoin="round"/>
</svg>
